HIERARCHY
ROOT RootJoint
{
    OFFSET   0.000000   0.000000   0.000000
    CHANNELS 6 Xposition Yposition Zposition Xrotation Yrotation Zrotation
    JOINT pelvis_lowerback
    {
        OFFSET   0.000000   0.093605   0.000000
        CHANNELS 3 Xrotation Yrotation Zrotation
        JOINT lowerback_torso
        {
            OFFSET   0.000000   0.100000   0.000000
            CHANNELS 3 Xrotation Yrotation Zrotation
            JOINT torso_head
            {
                OFFSET   0.000000   0.282350   0.000000
                CHANNELS 3 Xrotation Yrotation Zrotation
                End Site
                {
                    OFFSET   0.000000   0.192650   0.000000
                }
            }
            JOINT rTorso_Clavicle
            {
                OFFSET  -0.001000   0.157500   0.000000
                CHANNELS 3 Xrotation Yrotation Zrotation
                JOINT rShoulder
                {
                    OFFSET  -0.117647   0.000000   0.000000
                    CHANNELS 3 Xrotation Yrotation Zrotation
                    JOINT rElbow
                    {
                        OFFSET  -0.245000   0.000000   0.000000
                        CHANNELS 3 Xrotation Yrotation Zrotation
                        JOINT rWrist
                        {
                            OFFSET  -0.240000   0.000000   0.000000
                            CHANNELS 3 Xrotation Yrotation Zrotation
                            End Site
                            {
                                OFFSET  -0.116353  -0.002500   0.000000
                            }
                        }
                    }
                }
            }
            JOINT lTorso_Clavicle
            {
                OFFSET   0.001000   0.157500   0.000000
                CHANNELS 3 Xrotation Yrotation Zrotation
                JOINT lShoulder
                {
                    OFFSET   0.117647   0.000000   0.000000
                    CHANNELS 3 Xrotation Yrotation Zrotation
                    JOINT lElbow
                    {
                        OFFSET   0.245000   0.000000   0.000000
                        CHANNELS 3 Xrotation Yrotation Zrotation
                        JOINT lWrist
                        {
                            OFFSET   0.240000   0.000000   0.000000
                            CHANNELS 3 Xrotation Yrotation Zrotation
                            End Site
                            {
                                OFFSET   0.116353  -0.002500   0.000000
                            }
                        }
                    }
                }
            }
        }
    }
    JOINT rHip
    {
        OFFSET  -0.100000  -0.051395   0.000000
        CHANNELS 3 Xrotation Yrotation Zrotation
        JOINT rKnee
        {
            OFFSET   0.000000  -0.410000   0.000000
            CHANNELS 3 Xrotation Yrotation Zrotation
            JOINT rAnkle
            {
                OFFSET   0.000000  -0.390000   0.000000
                CHANNELS 3 Xrotation Yrotation Zrotation
                JOINT rToeJoint
                {
                    OFFSET   0.000000  -0.050000   0.130000
                    CHANNELS 3 Xrotation Yrotation Zrotation
                    End Site
                    {
                        OFFSET  -0.010000   0.002000   0.060000
                    }
                }
            }
        }
    }
    JOINT lHip
    {
        OFFSET   0.100000  -0.051395   0.000000
        CHANNELS 3 Xrotation Yrotation Zrotation
        JOINT lKnee
        {
            OFFSET   0.000000  -0.410000   0.000000
            CHANNELS 3 Xrotation Yrotation Zrotation
            JOINT lAnkle
            {
                OFFSET   0.000000  -0.390000   0.000000
                CHANNELS 3 Xrotation Yrotation Zrotation
                JOINT lToeJoint
                {
                    OFFSET   0.000000  -0.050000   0.130000
                    CHANNELS 3 Xrotation Yrotation Zrotation
                    End Site
                    {
                        OFFSET   0.010000   0.002000   0.060000
                    }
                }
            }
        }
    }
}
MOTION
Frames: 12
Frame Time:   0.008333
 -2.282132   0.922240   5.574512  22.856866  26.509480 -16.065644  61.801761   4.008083  -0.373694   4.191285  -0.442883  -4.386989   3.125525  -3.410904  -8.141274 -14.318234  44.096985  -3.129235 -44.320149  19.090018  19.386860   0.000770  52.547395   0.000437  -3.306636   3.506943 -33.540778 -18.412806 -41.497461   2.951617 -40.051493 -12.631295 -17.166315   0.004148 -66.414313   0.003564  -2.851007  -5.203376  34.585156 -38.249960  -3.121441  -4.297154  25.273392  -0.000192  -0.000135  11.110030  -1.603547   7.932011  -6.662140   0.000911   0.000557 -34.060863  -0.794589   3.500533  19.756241  -0.000123  -0.000121  -1.525205   8.587781   3.114302  -8.470267   0.001215  -0.001022
 -2.282284   0.922923   5.574925  22.940296  26.625404 -16.147207  61.744597   3.992482  -0.422568   4.054497  -0.365987  -4.429586   3.220645  -3.463311  -8.124479 -14.310565  44.097737  -3.262350 -44.517300  19.320231  19.409888   0.000704  52.410363   0.000557  -3.226033   3.484317 -33.588589 -18.493893 -41.529742   3.012829 -40.234605 -12.686461 -17.195156   0.004537 -66.291983   0.003954  -2.817247  -5.129655  34.656928 -38.193229  -3.217346  -4.310974  25.108338  -0.000143  -0.000181  11.522706  -1.591476   8.012504  -7.414324   0.001175   0.000416 -34.023344  -0.894707   3.486977  19.558759  -0.000078  -0.000158  -1.212245   8.650176   3.067270  -8.561604   0.000979  -0.000884
 -2.282412   0.923615   5.575369  23.003919  26.716017 -16.217846  61.682810   3.977997  -0.485064   3.931335  -0.289590  -4.481764   3.311895  -3.513518  -8.108431 -14.290702  44.100105  -3.397169 -44.701229  19.545753  19.442968   0.000607  52.283629   0.000663  -3.152795   3.455430 -33.612714 -18.560824 -41.568720   3.065768 -40.401939 -12.740571 -17.233037   0.004673 -66.178804   0.004134  -2.786731  -5.055813  34.717327 -38.122341  -3.309369  -4.311699  24.932433  -0.000095  -0.000192  11.914161  -1.571804   8.088937  -8.028840   0.001332   0.000359 -33.986742  -0.987112   3.486554  19.394097  -0.000040  -0.000153  -0.891772   8.711467   3.025280  -8.735838   0.000813  -0.000805
 -2.282523   0.924284   5.575840  23.055607  26.800151 -16.285967  61.616630   3.964271  -0.546302   3.816509  -0.217579  -4.535195   3.396298  -3.560294  -8.093691 -14.265528  44.103194  -3.527551 -44.872372  19.760570  19.479440   0.000516  52.167159   0.000737  -3.079733   3.432362 -33.620175 -18.617145 -41.609942   3.112480 -40.555304 -12.791567 -17.274815   0.004648 -66.073828   0.004166  -2.757745  -4.985369  34.764302 -38.045961  -3.397791  -4.305087  24.766560  -0.000057  -0.000195  12.281432  -1.551625   8.160279  -8.570555   0.001393   0.000310 -33.946773  -1.063859   3.493030  19.246537  -0.000016  -0.000159  -0.582885   8.779989   2.986528  -8.945093   0.000691  -0.000791
 -2.282622   0.924921   5.576333  23.100194  26.883420 -16.354189  61.547189   3.950097  -0.603518   3.706883  -0.151007  -4.586171   3.473981  -3.603800  -8.079920 -14.238643  44.106530  -3.651519 -45.031928  19.962737  19.516215   0.000439  52.059462   0.000780  -3.007087   3.414369 -33.620143 -18.665989 -41.651077   3.154610 -40.696730 -12.839304 -17.317512   0.004520 -65.976209   0.004099  -2.729945  -4.918334  34.801737 -37.968086  -3.481414  -4.294197  24.614778  -0.000031  -0.000199  12.624948  -1.531518   8.226952  -9.061895   0.001387   0.000246 -33.904234  -1.132157   3.504102  19.110868  -0.000001  -0.000169  -0.289407   8.848301   2.951357  -9.171215   0.000600  -0.000809
 -2.282711   0.925525   5.576844  23.140134  26.966896 -16.423074  61.475530   3.934978  -0.656453   3.601161  -0.090104  -4.633754   3.545549  -3.644292  -8.067031 -14.211894  44.109865  -3.768489 -45.180887  20.151863  19.551752   0.000377  51.959470   0.000798  -2.935849   3.399592 -33.617785 -18.709481 -41.690952   3.193208 -40.827800 -12.883952 -17.359439   0.004328 -65.885358   0.003964  -2.703111  -4.854668  34.833121 -37.890492  -3.559868  -4.280437  24.476867  -0.000013  -0.000204  12.945868  -1.511381   8.289395  -9.512344   0.001336   0.000167 -33.860164  -1.194914   3.518623  18.984911   0.000009  -0.000182  -0.012063   8.913831   2.919168  -9.405297   0.000532  -0.000837
 -2.282789   0.926097   5.577370  23.176783  27.050266 -16.492432  61.402530   3.918781  -0.705434   3.498853  -0.034737  -4.677913   3.611605  -3.682009  -8.055015 -14.186173  44.113081  -3.878422 -45.320051  20.328225  19.585337   0.000329  51.866409   0.000797  -2.866649   3.386784 -33.615602 -18.748945 -41.728998   3.228910 -40.949675 -12.925725 -17.399722   0.004096 -65.800791   0.003784  -2.677048  -4.794384  34.860764 -37.814089  -3.633239  -4.264599  24.351637  -0.000003  -0.000210  13.245541  -1.491226   8.347927  -9.927148   0.001257   0.000084 -33.815361  -1.253415   3.535810  18.867525   0.000015  -0.000193   0.249345   8.975738   2.889586  -9.642115   0.000480  -0.000865
 -2.282848   0.926663   5.577852  23.275346  27.157822 -16.588554  61.276525   3.926086  -0.726885   3.428410   0.009329  -4.692409   3.730671  -3.657508  -8.066803 -14.159699  44.116376  -4.010149 -45.558908  20.491188  19.646413   0.000516  51.662245   0.000691  -2.771305   3.396915 -33.614893 -18.830808 -41.810555   3.241120 -41.068077 -12.980576 -17.473300   0.004258 -65.655961   0.004015  -2.651473  -4.762994  34.919385 -37.712427  -3.752308  -4.284679  24.097352  -0.000009  -0.000226  13.526444  -1.409896   8.425556 -10.361048   0.001295  -0.000174 -33.823279  -1.260251   3.546368  18.729051   0.000007  -0.000312   0.570724   8.974238   2.771373  -9.946582   0.000216  -0.001036
 -2.282872   0.927171   5.578299  23.391839  27.255484 -16.683437  61.150663   3.936594  -0.748831   3.356971   0.050005  -4.703344   3.846984  -3.631652  -8.079175 -14.144567  44.118232  -4.139899 -45.789684  20.647923  19.699226   0.000662  51.467849   0.000583  -2.697765   3.379768 -33.636851 -18.906389 -41.901422   3.258010 -41.179860 -13.039883 -17.546982   0.004226 -65.519300   0.004044  -2.636206  -4.720595  34.968221 -37.614924  -3.863940  -4.311606  23.818591  -0.000021  -0.000239  13.782784  -1.328207   8.500398 -10.807841   0.001324  -0.000395 -33.845102  -1.262266   3.548015  18.584539  -0.000000  -0.000407   0.873796   8.967480   2.656941 -10.230573   0.000010  -0.001129
 -2.282861   0.927620   5.578714  23.514131  27.341350 -16.773247  61.032501   3.946563  -0.771376   3.285984   0.087299  -4.714261   3.956399  -3.607259  -8.091054 -14.134276  44.119482  -4.266611 -46.008904  20.798926  19.746709   0.000747  51.287467   0.000492  -2.627586   3.362974 -33.665247 -18.976556 -41.992407   3.276671 -41.284725 -13.099362 -17.617380   0.004061 -65.392451   0.003928  -2.621437  -4.680472  35.006698 -37.526877  -3.968332  -4.340969  23.542411  -0.000030  -0.000234  14.018305  -1.252469   8.570390 -11.262395   0.001338  -0.000542 -33.872789  -1.263337   3.543926  18.442159  -0.000007  -0.000465   1.149899   8.959973   2.548625 -10.487620  -0.000139  -0.001150
 -2.282814   0.928019   5.579103  23.637638  27.416753 -16.857887  60.924064   3.955392  -0.793291   3.218127   0.121537  -4.724951   4.058916  -3.584512  -8.102269 -14.126323  44.120442  -4.388793 -46.215820  20.943071  19.790298   0.000781  51.120227   0.000416  -2.557219   3.351596 -33.694958 -19.041969 -42.080614   3.295473 -41.382992 -13.157028 -17.683878   0.003811 -65.274556   0.003719  -2.605838  -4.644277  35.039000 -37.448356  -4.066103  -4.371343  23.276488  -0.000037  -0.000217  14.235676  -1.182806   8.635550 -11.712768   0.001330  -0.000622 -33.903393  -1.263627   3.535990  18.304728  -0.000012  -0.000494   1.400668   8.952364   2.446179 -10.720928  -0.000243  -0.001123
 -2.282734   0.928394   5.579441  23.743829  27.466862 -16.939087  60.815922   3.904430  -0.804092   3.153171   0.084960  -4.721287   4.157920  -3.558460  -8.125921 -14.289762  44.572866  -4.352582 -46.387931  20.981949  19.764281   0.000957  50.939556  -0.000056  -2.534755   3.262256 -33.818150 -19.110976 -42.104285   3.303033 -41.471983 -13.176958 -17.721628   0.003574 -65.155638   0.003558  -2.606794  -4.584818  35.108387 -37.373825  -4.158212  -4.384812  23.022097  -0.000037  -0.000168  14.443292  -1.116580   8.695470 -12.066356   0.001263  -0.000595 -33.926213  -1.259488   3.542395  18.177123  -0.000015  -0.000488   1.622176   8.950283   2.349985 -10.928140  -0.000308  -0.001060
